<svg xmlns="http://www.w3.org/2000/svg" xmlns:xlink="http://www.w3.org/1999/xlink" width="500" zoomAndPan="magnify" viewBox="0 0 375 374.999991" height="500" preserveAspectRatio="xMidYMid meet" version="1.0"><defs><clipPath id="b5a1255307"><path d="M 179 62 L 331.671875 62 L 331.671875 359.09375 L 179 359.09375 Z M 179 62 " clip-rule="nonzero"/></clipPath><clipPath id="ab9f89e31e"><path d="M 44 15.59375 L 331.671875 15.59375 L 331.671875 359.09375 L 44 359.09375 Z M 44 15.59375 " clip-rule="nonzero"/></clipPath><clipPath id="9b6a1925b1"><path d="M 43.671875 15.59375 L 197 15.59375 L 197 313 L 43.671875 313 Z M 43.671875 15.59375 " clip-rule="nonzero"/></clipPath></defs><g clip-path="url(#b5a1255307)"><path fill="#004aad" d="M 179.21875 359.09375 L 244.359375 359.09375 C 292.238281 359.09375 331.421875 320 331.421875 272.214844 L 331.421875 62.285156 C 251.015625 140.695312 300.878906 295.574219 179.21875 359.09375 Z M 179.21875 359.09375 " fill-opacity="1" fill-rule="evenodd"/></g><g clip-path="url(#ab9f89e31e)"><path fill="#38b6ff" d="M 44.15625 359.09375 Z M 331.167969 15.59375 C 63.707031 27.402344 206.335938 274.425781 44.15625 359.09375 C 311.617188 347.292969 168.984375 100.269531 331.167969 15.59375 Z M 331.167969 15.59375 " fill-opacity="1" fill-rule="evenodd"/></g><g clip-path="url(#9b6a1925b1)"><path fill="#004aad" d="M 196.101562 15.59375 L 130.964844 15.59375 C 83.085938 15.59375 43.902344 54.695312 43.902344 102.472656 L 43.902344 312.402344 C 124.300781 233.992188 74.445312 79.113281 196.101562 15.59375 Z M 196.101562 15.59375 " fill-opacity="1" fill-rule="evenodd"/></g></svg>